<svg xmlns="http://www.w3.org/2000/svg" width="1200" height="700" viewBox="0 0 1200 700" role="img" aria-label="AUSTRALIA AWARDS Australia">
<rect width="1200" height="700" fill="#0f172a"/>
<circle cx="1030" cy="90" r="260" fill="#0f766e" opacity=".85"/>
<circle cx="110" cy="650" r="250" fill="#f59e0b" opacity=".9"/>
<path d="M0 470 C260 370 410 610 700 470 S1050 340 1200 430 V700 H0Z" fill="#ffffff" opacity=".08"/>
<rect x="70" y="70" width="170" height="10" rx="5" fill="#2dd4bf"/>
<text x="70" y="260" fill="#ffffff" font-size="64" font-family="Arial, sans-serif" font-weight="800">AUSTRALIA AWARDS</text>
<text x="74" y="330" fill="#99f6e4" font-size="32" font-family="Arial, sans-serif" font-weight="700">Australia</text>
<rect x="70" y="390" width="420" height="70" rx="35" fill="#ffffff" opacity=".12"/>
<text x="105" y="435" fill="#ffffff" font-size="25" font-family="Arial, sans-serif" font-weight="700">Development</text>
<g transform="translate(900 420)"><rect x="0" y="0" width="190" height="150" rx="28" fill="#ffffff"/><path d="M42 48h106M42 78h82M42 108h95" stroke="#0f766e" stroke-width="13" stroke-linecap="round"/><circle cx="155" cy="112" r="38" fill="#f59e0b"/><path d="M140 112l12 12 22-28" fill="none" stroke="#0f172a" stroke-width="10" stroke-linecap="round" stroke-linejoin="round"/></g>
</svg>